{"glyphs":{"A":{"ha":979,"x_min":-28,"x_max":1000,"o":"m 53 109 l 366 1037 l 606 1037 l 921 108 l 1000 91 l 1000 0 l 570 0 l 570 91 l 668 109 l 619 276 l 278 276 l 231 106 l 338 91 l 338 0 l -27 0 l -28 91 l 53 109 m 589 380 l 466 800 l 445 896 l 424 800 l 307 380 l 589 380 z "},"B":{"ha":987,"x_min":52,"x_max":946,"o":"m 158 109 l 158 918 l 54 937 l 54 1032 l 267 1032 q 388 1037 302 1032 q 486 1041 454 1041 q 718 1014 633 1041 q 839 935 803 986 q 874 806 874 884 q 846 684 874 738 q 767 596 817 630 q 652 553 717 563 q 807 525 741 553 q 909 442 873 496 q 946 311 946 387 q 502 -8 946 -8 q 385 -4 454 -8 q 271 0 317 0 l 52 0 l 52 91 l 158 109 m 385 589 q 494 586 411 586 q 611 635 574 586 q 648 779 648 684 q 608 908 648 867 q 479 949 569 949 q 428 946 458 949 q 385 942 398 944 l 385 589 m 385 99 q 494 87 406 87 q 648 140 600 87 q 696 294 696 193 q 676 404 696 363 q 614 464 656 445 q 505 482 572 482 q 385 480 423 482 l 385 99 z "},"C":{"ha":916,"x_min":37,"x_max":871,"o":"m 37 509 q 104 794 37 673 q 288 979 171 916 q 551 1043 404 1043 q 669 1036 612 1043 q 799 1017 727 1029 q 870 1007 855 1008 l 854 705 l 709 705 l 661 909 q 618 935 650 925 q 534 945 587 945 q 409 898 463 945 q 327 758 356 851 q 298 529 298 665 q 325 301 298 401 q 407 142 351 200 q 545 83 463 83 q 628 96 598 83 q 674 128 657 109 l 739 278 l 871 266 l 845 38 q 804 31 823 36 q 754 18 785 26 q 656 -7 702 2 q 543 -16 610 -16 q 264 47 378 -16 q 94 228 151 111 q 37 509 37 345 z "},"D":{"ha":1063,"x_min":52,"x_max":1021,"o":"m 158 108 l 158 918 l 57 937 l 57 1032 l 268 1032 q 388 1036 311 1032 q 510 1041 456 1041 q 893 914 766 1041 q 1021 551 1021 787 q 959 261 1021 389 q 780 61 896 134 q 508 -11 663 -11 q 376 -5 475 -11 q 327 -2 360 -4 q 273 0 293 0 l 52 0 l 52 91 l 158 108 m 385 102 q 436 92 408 94 q 502 90 465 89 q 700 196 629 91 q 771 517 771 302 q 700 833 771 721 q 478 945 629 945 q 412 940 436 945 q 385 935 389 935 l 385 102 z "},"E":{"ha":913,"x_min":50,"x_max":894,"o":"m 158 108 l 158 917 l 50 937 l 50 1032 l 801 1032 l 820 793 l 709 793 l 662 927 l 388 941 l 388 580 l 560 584 l 585 696 l 684 696 l 684 351 l 585 351 l 562 470 l 388 474 l 388 98 l 693 117 l 778 292 l 894 258 l 859 0 l 52 0 l 52 91 l 158 108 z "},"F":{"ha":866,"x_min":50,"x_max":838,"o":"m 158 108 l 158 918 l 50 937 l 50 1032 l 822 1032 l 838 777 l 715 777 l 661 924 l 388 940 l 388 559 l 571 562 l 600 682 l 701 682 l 701 321 l 601 321 l 571 444 l 388 450 l 388 109 l 593 91 l 593 0 l 52 0 l 52 91 l 158 108 z "},"G":{"ha":1038,"x_min":45,"x_max":1011,"o":"m 45 505 q 112 796 45 675 q 300 981 178 918 q 583 1045 421 1045 q 772 1031 679 1045 q 930 1002 865 1017 l 914 738 l 755 738 l 714 915 q 669 940 701 929 q 577 951 636 951 q 433 904 493 951 q 341 762 373 856 q 309 531 309 668 q 336 298 309 399 q 419 139 362 197 q 564 81 476 81 q 654 94 612 81 q 716 128 696 106 l 716 414 l 585 429 l 585 531 l 1011 531 l 1011 429 l 941 416 l 941 56 q 899 49 923 55 q 837 33 875 43 q 686 -3 752 9 q 543 -16 620 -16 q 274 52 387 -16 q 103 238 161 120 q 45 505 45 356 z "},"H":{"ha":1164,"x_min":55,"x_max":1109,"o":"m 158 108 l 158 918 l 58 937 l 58 1032 l 500 1032 l 500 937 l 387 918 l 387 584 l 777 584 l 777 917 l 671 937 l 671 1032 l 1109 1032 l 1109 937 l 1006 918 l 1006 108 l 1109 91 l 1109 0 l 673 0 l 673 91 l 777 109 l 777 469 l 387 469 l 387 109 l 500 91 l 500 0 l 55 0 l 55 91 l 158 108 z "},"I":{"ha":576,"x_min":60,"x_max":519,"o":"m 174 109 l 174 917 l 60 937 l 60 1032 l 517 1032 l 517 937 l 404 918 l 404 109 l 519 90 l 519 0 l 62 0 l 62 91 l 174 109 z "},"J":{"ha":547,"x_min":-25,"x_max":513,"o":"m -25 -186 q 40 -151 6 -176 q 102 -87 73 -125 q 146 1 130 -48 q 168 110 161 48 q 174 281 174 172 l 174 917 l 58 937 l 58 1032 l 513 1032 l 513 937 l 402 918 l 402 386 q 398 162 402 248 q 383 28 395 76 q 259 -164 353 -87 q 25 -267 166 -241 l -25 -186 z "},"K":{"ha":1045,"x_min":51,"x_max":1050,"o":"m 778 0 q 725 54 757 0 q 638 222 694 109 q 561 376 592 317 q 500 473 529 435 l 387 340 l 387 108 l 505 91 l 505 0 l 51 0 l 51 91 l 158 109 l 158 918 l 52 937 l 52 1032 l 488 1032 l 488 937 l 387 917 l 387 483 l 726 918 l 616 937 l 615 1032 l 1004 1032 l 1004 937 l 886 918 l 633 631 q 733 507 680 588 q 862 296 787 425 q 945 159 917 202 q 988 109 972 116 l 1050 91 l 1050 0 l 778 0 z "},"L":{"ha":889,"x_min":52,"x_max":872,"o":"m 158 109 l 158 917 l 54 937 l 54 1032 l 517 1032 l 517 937 l 389 917 l 389 109 l 656 124 l 745 387 l 872 368 l 832 0 l 52 0 l 52 91 l 158 109 z "},"M":{"ha":1430,"x_min":-3,"x_max":1436,"o":"m 114 108 l 208 918 l 72 937 l 72 1032 l 521 1032 l 698 432 l 723 300 l 745 432 l 894 1032 l 1348 1032 l 1348 937 l 1200 917 l 1321 109 l 1436 91 l 1436 0 l 972 0 l 972 91 l 1086 108 l 1017 705 l 990 954 l 950 762 l 764 39 l 597 39 l 378 711 l 319 958 l 302 706 l 258 109 l 396 91 l 396 0 l -3 0 l -3 91 l 114 108 z "},"N":{"ha":1118,"x_min":50,"x_max":1094,"o":"m 159 108 l 159 918 l 50 937 l 50 1032 l 388 1032 l 783 433 l 857 276 l 857 918 l 737 937 l 737 1032 l 1094 1032 l 1094 937 l 987 918 l 987 0 l 798 0 l 382 635 l 290 821 l 290 108 l 433 91 l 433 0 l 50 0 l 50 91 l 159 108 z "},"O":{"ha":1013,"x_min":37,"x_max":976,"o":"m 37 512 q 97 793 37 673 q 265 980 157 914 q 515 1045 373 1045 q 863 910 749 1044 q 976 532 976 775 q 916 245 976 369 q 746 53 855 121 q 492 -16 636 -16 q 236 50 338 -16 q 86 233 135 115 q 37 512 37 351 m 290 513 q 346 187 290 296 q 506 79 402 79 q 623 130 574 79 q 697 282 671 180 q 724 531 724 383 q 668 849 724 747 q 507 951 612 951 q 346 842 402 951 q 290 513 290 733 z "},"P":{"ha":923,"x_min":52,"x_max":897,"o":"m 158 108 l 158 918 l 57 937 l 57 1032 l 264 1032 q 354 1036 302 1032 q 498 1040 446 1040 q 736 1005 649 1040 q 861 903 824 970 q 897 734 897 836 q 848 533 897 616 q 706 405 800 449 q 484 360 613 360 q 424 361 452 360 q 387 365 396 363 l 387 109 l 567 91 l 567 0 l 52 0 l 52 91 l 158 108 m 479 454 q 611 517 562 454 q 661 728 661 580 q 614 895 661 842 q 475 948 568 948 q 406 943 436 948 q 387 940 399 941 l 387 460 q 479 454 418 454 z "},"Q":{"ha":1021,"x_min":41,"x_max":1289,"o":"m 41 512 q 100 793 41 673 q 268 980 160 914 q 519 1045 376 1045 q 866 910 753 1044 q 979 532 979 775 q 915 237 979 363 q 735 45 850 110 q 829 15 781 35 q 954 -41 878 -5 q 1096 -104 1042 -83 q 1196 -125 1151 -125 l 1198 -125 q 1266 -119 1239 -125 l 1289 -191 q 1271 -213 1288 -193 q 1209 -249 1253 -233 q 1109 -265 1165 -265 l 1101 -265 q 984 -244 1040 -265 q 882 -193 928 -223 q 772 -113 836 -163 q 680 -46 718 -71 q 604 -5 642 -20 q 496 -16 554 -16 q 240 50 341 -16 q 90 233 138 115 q 41 512 41 351 m 293 513 q 349 187 293 296 q 509 79 406 79 q 626 130 578 79 q 701 282 675 180 q 727 531 727 383 q 671 849 727 747 q 510 951 615 951 q 349 842 406 951 q 293 513 293 733 z "},"R":{"ha":1008,"x_min":52,"x_max":1010,"o":"m 158 108 l 158 918 l 57 937 l 57 1032 l 268 1032 q 374 1036 304 1032 q 420 1039 382 1037 q 500 1041 458 1041 q 733 1012 646 1041 q 859 923 820 983 q 897 765 897 863 q 875 647 897 705 q 808 544 853 589 q 699 478 764 498 q 773 423 739 461 q 830 340 806 385 q 884 233 854 296 q 931 140 913 170 q 968 106 949 111 l 1010 91 l 1010 0 l 747 0 q 705 44 726 0 q 649 184 684 89 q 604 304 623 256 q 562 389 585 351 q 513 440 538 427 q 387 441 409 440 l 387 107 l 511 91 l 511 0 l 52 0 l 52 91 l 158 108 m 496 532 q 612 588 571 532 q 654 756 654 644 q 612 901 654 853 q 475 949 571 949 q 387 942 419 949 l 387 535 q 444 532 398 532 l 496 532 z "},"S":{"ha":842,"x_min":75,"x_max":804,"o":"m 87 304 l 214 304 l 248 132 q 308 97 265 111 q 406 82 351 82 q 533 119 492 82 q 574 222 574 155 q 548 302 574 268 q 474 365 522 337 q 345 432 427 393 q 157 561 234 484 q 80 764 80 638 q 120 905 80 842 q 242 1007 161 969 q 441 1045 323 1045 q 568 1035 512 1045 q 683 1008 624 1024 q 734 996 723 997 l 726 751 l 602 751 l 569 917 q 525 941 559 930 q 448 951 490 951 q 334 917 371 951 q 298 823 298 882 q 328 739 298 775 q 404 675 357 703 q 539 603 450 647 q 670 527 615 565 q 765 431 726 490 q 804 295 804 373 q 766 148 804 218 q 641 31 728 77 q 414 -16 553 -16 q 272 -3 336 -16 q 137 31 207 10 q 75 46 90 45 l 87 304 z "},"T":{"ha":995,"x_min":23,"x_max":963,"o":"m 383 109 l 383 930 l 208 923 l 152 622 l 23 622 l 43 1032 l 943 1032 l 963 622 l 839 622 l 779 923 l 615 930 l 615 109 l 805 91 l 805 0 l 209 0 l 209 91 l 383 109 z "},"U":{"ha":1030,"x_min":20,"x_max":1017,"o":"m 109 917 l 20 937 l 20 1032 l 461 1032 l 461 937 l 347 916 l 347 404 q 401 163 347 241 q 565 85 455 85 q 726 168 673 85 q 778 400 778 251 l 778 917 l 661 937 l 661 1032 l 1017 1032 l 1017 937 l 925 917 l 925 412 q 875 171 925 265 q 738 33 825 76 q 534 -11 650 -11 q 294 34 388 -11 q 155 174 201 79 q 109 423 109 270 l 109 917 z "},"V":{"ha":966,"x_min":-24,"x_max":992,"o":"m -24 937 l -24 1032 l 423 1032 l 423 937 l 307 918 l 499 307 l 532 184 l 559 308 l 749 917 l 644 937 l 644 1032 l 992 1032 l 992 937 l 903 918 l 584 -10 l 399 -10 l 58 918 l -24 937 z "},"W":{"ha":1421,"x_min":-26,"x_max":1447,"o":"m -26 937 l -26 1032 l 409 1032 l 409 937 l 295 916 l 463 301 l 488 167 l 511 301 l 653 798 l 614 917 l 527 937 l 527 1032 l 979 1032 l 979 937 l 850 917 l 1019 301 l 1048 157 l 1072 301 l 1226 917 l 1105 937 l 1105 1032 l 1447 1032 l 1447 937 l 1359 916 l 1097 -7 l 891 -7 l 711 610 l 540 -7 l 338 -7 l 55 916 l -26 937 z "},"X":{"ha":1004,"x_min":7,"x_max":1007,"o":"m 122 108 l 389 501 l 111 917 l 18 937 l 18 1032 l 486 1032 l 486 937 l 381 916 l 556 623 l 739 918 l 625 937 l 625 1032 l 989 1032 l 989 937 l 879 918 l 613 552 l 911 109 l 1007 91 l 1007 0 l 538 0 l 538 91 l 643 109 l 448 427 l 267 108 l 391 91 l 391 0 l 7 0 l 7 91 l 122 108 z "},"Y":{"ha":916,"x_min":-24,"x_max":941,"o":"m 345 108 l 345 413 l 58 917 l -24 937 l -24 1032 l 409 1032 l 409 937 l 317 917 l 479 591 l 511 503 l 545 589 l 694 918 l 590 937 l 590 1032 l 941 1032 l 941 937 l 854 919 l 587 413 l 587 109 l 734 91 l 734 0 l 203 0 l 203 91 l 345 108 z "},"Z":{"ha":913,"x_min":21,"x_max":871,"o":"m 528 855 l 608 945 l 278 927 l 198 740 l 82 757 l 115 1036 l 829 1036 l 866 954 l 369 180 l 276 94 l 671 123 l 753 332 l 871 309 l 840 0 l 69 0 l 21 81 l 528 855 z "},"a":{"ha":787,"x_min":39,"x_max":766,"o":"m 489 504 q 478 585 489 555 q 437 629 467 614 q 351 644 407 644 q 226 629 282 644 q 114 589 170 614 l 113 589 l 69 681 q 143 725 92 700 q 265 770 195 751 q 407 789 334 789 q 577 761 515 789 q 666 672 640 733 q 692 507 692 611 l 692 92 l 766 92 l 766 5 q 680 -9 732 -2 q 588 -17 627 -17 q 533 -11 552 -17 q 505 13 513 -4 q 497 61 497 29 l 497 82 q 407 14 464 43 q 276 -16 350 -16 q 157 11 211 -16 q 71 90 103 38 q 39 216 39 142 q 159 409 39 344 q 489 475 278 473 l 489 504 m 489 384 q 325 343 376 383 q 275 241 275 303 q 303 145 275 179 q 381 112 332 112 q 436 124 405 112 q 489 156 468 137 l 489 384 z "},"b":{"ha":863,"x_min":0,"x_max":817,"o":"m 0 1025 l 0 1106 l 269 1139 l 272 1139 l 317 1112 l 317 707 q 404 768 352 743 q 517 792 456 792 q 670 752 602 792 q 777 627 737 713 q 817 411 817 542 q 766 193 817 290 q 622 40 716 96 q 402 -16 528 -16 q 257 -6 322 -16 q 152 16 193 3 q 100 38 112 29 l 100 1008 l 0 1025 m 317 104 q 349 80 323 89 q 410 71 374 71 q 500 106 461 71 q 560 215 538 142 q 582 393 582 287 q 542 594 582 528 q 431 659 502 659 q 365 644 395 659 q 317 607 334 628 l 317 104 z "},"c":{"ha":720,"x_min":50,"x_max":686,"o":"m 448 792 q 542 784 502 792 q 630 763 582 777 q 681 750 663 753 l 671 509 l 535 509 l 500 654 q 473 684 493 674 q 427 693 454 693 q 286 419 286 693 q 308 252 286 319 q 370 152 330 185 q 463 119 410 119 q 566 135 521 119 q 648 174 610 150 l 686 92 q 624 44 665 69 q 527 2 583 19 q 410 -16 471 -16 q 208 35 288 -16 q 89 173 127 85 q 50 378 51 261 q 99 594 50 500 q 239 740 149 688 q 448 792 329 792 z "},"d":{"ha":873,"x_min":47,"x_max":836,"o":"m 47 368 q 95 581 47 485 q 236 735 142 677 q 460 792 330 792 q 547 783 500 792 l 547 1006 l 416 1023 l 416 1110 l 715 1139 l 721 1139 l 764 1107 l 764 95 l 836 95 l 836 5 q 661 -17 730 -17 q 609 -11 628 -17 q 580 12 590 -5 q 570 61 570 29 l 570 91 q 475 14 534 44 q 348 -16 415 -16 q 194 26 262 -16 q 86 153 126 67 q 47 368 47 239 m 547 667 q 511 689 538 680 q 453 698 485 698 q 328 623 375 698 q 281 380 281 548 q 321 176 281 243 q 431 109 362 109 q 498 124 469 109 q 547 161 528 140 l 547 667 z "},"e":{"ha":766,"x_min":45,"x_max":722,"o":"m 45 385 q 93 602 45 511 q 225 743 140 694 q 423 791 311 791 q 643 719 566 791 q 722 511 719 646 q 712 368 722 416 l 274 368 q 335 182 282 243 q 477 122 389 122 q 583 140 528 122 q 673 180 638 157 l 712 96 q 642 45 688 71 q 535 2 595 19 q 415 -16 475 -16 q 206 35 289 -16 q 84 175 123 85 q 45 385 45 264 m 506 460 l 507 517 q 482 649 507 602 q 399 696 458 696 q 334 676 361 696 q 290 605 307 656 q 272 460 274 553 l 506 460 z "},"f":{"ha":577,"x_min":44,"x_max":608,"o":"m 155 105 l 155 655 l 44 655 l 44 739 l 155 769 l 155 829 q 206 997 155 920 q 339 1117 256 1073 q 517 1161 422 1161 q 570 1157 551 1161 q 608 1147 589 1154 l 608 947 q 575 969 598 957 q 522 988 552 981 q 462 996 491 996 q 409 988 427 996 q 382 958 390 979 q 374 899 374 937 l 374 770 l 546 770 l 546 655 l 374 655 l 374 104 l 513 90 l 513 0 l 50 0 l 50 90 l 155 105 z "},"g":{"ha":876,"x_min":47,"x_max":865,"o":"m 398 270 q 287 279 332 270 q 274 245 279 264 q 269 213 269 226 q 284 168 269 183 q 331 147 299 153 q 419 141 362 141 l 557 141 q 774 89 703 141 q 846 -73 846 37 q 785 -231 846 -162 q 624 -337 724 -299 q 412 -374 524 -374 l 412 -374 q 134 -316 222 -374 q 47 -159 47 -257 q 83 -49 47 -100 q 175 26 120 3 q 110 141 110 64 q 140 231 110 188 q 220 298 170 273 q 107 389 144 329 q 71 531 71 448 q 117 670 71 610 q 243 761 164 729 q 418 792 323 792 l 418 792 q 673 724 593 792 q 734 772 693 750 q 823 794 775 794 l 865 794 l 865 627 l 733 627 q 743 547 743 590 q 703 402 744 465 q 584 304 662 339 q 399 270 506 270 l 398 270 m 410 702 q 321 662 351 702 q 292 540 292 621 q 321 409 292 455 q 414 363 349 363 l 414 363 q 500 407 474 363 q 526 532 526 451 q 498 661 526 621 q 411 702 471 702 l 410 702 m 281 -5 q 262 -107 262 -47 q 435 -270 262 -270 l 437 -270 q 524 -253 482 -270 q 592 -202 566 -236 q 618 -119 618 -168 q 605 -54 618 -78 q 563 -20 593 -31 q 480 -9 533 -9 l 355 -9 q 281 -5 321 -9 z "},"h":{"ha":941,"x_min":31,"x_max":917,"o":"m 130 104 l 130 1005 l 31 1023 l 31 1106 l 304 1139 l 309 1139 l 349 1109 l 350 810 l 339 685 q 454 757 385 726 q 606 788 524 788 q 741 755 692 788 q 809 657 789 723 q 829 481 829 591 l 829 104 l 917 91 l 917 0 l 534 0 l 534 90 l 609 104 l 609 481 q 601 585 609 547 q 569 640 592 622 q 501 659 546 659 q 422 643 461 659 q 354 604 383 628 l 354 104 l 435 91 l 435 0 l 57 0 l 57 91 l 130 104 z "},"i":{"ha":489,"x_min":52,"x_max":451,"o":"m 143 104 l 143 625 l 52 653 l 52 757 l 319 791 l 322 791 l 364 761 l 364 104 l 451 91 l 451 0 l 52 0 l 52 91 l 143 104 m 110 1009 q 125 1076 110 1046 q 170 1125 140 1107 q 240 1143 199 1143 l 241 1143 q 307 1127 279 1143 q 349 1086 334 1112 q 363 1029 363 1060 q 328 933 363 970 q 227 897 293 897 l 227 897 q 166 911 193 897 q 125 952 140 926 q 110 1009 110 977 z "},"j":{"ha":470,"x_min":-13,"x_max":364,"o":"m 55 650 l 56 757 l 319 791 l 322 791 l 364 761 l 364 15 q 316 -176 364 -96 q 200 -297 269 -256 q 73 -338 132 -338 q 29 -336 53 -338 q -1 -332 5 -334 l -13 -243 q 19 -240 -1 -244 q 56 -227 39 -236 q 126 -134 105 -203 q 147 54 147 -64 l 146 621 l 55 650 m 102 1009 q 117 1076 102 1046 q 162 1125 132 1107 q 232 1143 191 1143 l 233 1143 q 299 1127 271 1143 q 341 1086 326 1112 q 355 1029 355 1060 q 320 933 355 970 q 219 897 285 897 l 218 897 q 158 911 184 897 q 117 952 132 926 q 102 1009 102 977 z "},"k":{"ha":900,"x_min":34,"x_max":917,"o":"m 130 104 l 130 1005 l 34 1023 l 34 1106 l 305 1139 l 308 1139 l 349 1109 l 349 463 l 345 397 l 601 667 l 494 685 l 494 771 l 874 771 l 874 685 l 758 662 l 606 519 l 845 105 l 917 91 l 917 0 l 537 0 l 537 90 l 600 104 l 455 382 l 344 269 l 348 194 l 348 104 l 430 90 l 430 0 l 50 0 l 50 91 l 130 104 z "},"l":{"ha":477,"x_min":33,"x_max":443,"o":"m 133 104 l 133 1005 l 33 1023 l 33 1106 l 307 1139 l 311 1139 l 351 1109 l 351 104 l 443 91 l 443 0 l 42 0 l 42 91 l 133 104 z "},"m":{"ha":1426,"x_min":66,"x_max":1394,"o":"m 149 103 l 149 625 l 66 652 l 66 760 l 311 791 l 314 791 l 351 761 l 351 711 l 350 680 q 429 734 380 709 q 532 773 479 759 q 625 788 585 788 q 747 763 701 788 q 817 684 793 737 q 936 758 863 727 q 1082 788 1009 788 q 1216 756 1166 788 q 1287 657 1265 724 q 1309 481 1309 590 l 1309 103 l 1394 90 l 1394 0 l 1023 0 l 1023 90 l 1086 104 l 1086 476 q 1076 584 1086 545 q 1042 641 1066 623 q 974 659 1018 659 q 904 643 940 659 q 839 607 868 628 q 848 481 848 554 l 848 104 l 930 90 l 930 0 l 552 0 l 552 90 l 624 104 l 624 481 q 615 586 624 548 q 583 641 606 623 q 517 659 560 659 q 439 643 478 659 q 372 604 399 627 l 372 104 l 450 90 l 450 0 l 74 0 l 74 90 l 149 103 z "},"n":{"ha":962,"x_min":66,"x_max":931,"o":"m 149 103 l 149 625 l 66 652 l 66 760 l 311 791 l 314 791 l 351 761 l 351 711 l 350 680 q 473 756 398 725 q 626 788 548 788 q 759 758 710 788 q 828 661 807 728 q 850 481 850 595 l 850 104 l 931 92 l 931 0 l 554 0 l 554 91 l 625 104 l 625 481 q 616 586 625 548 q 585 641 608 623 q 518 659 562 659 q 440 642 479 659 q 373 603 401 625 l 373 104 l 452 91 l 452 0 l 71 0 l 71 91 l 149 103 z "},"o":{"ha":843,"x_min":43,"x_max":800,"o":"m 431 792 q 630 744 547 792 q 756 607 713 696 q 800 393 800 517 q 747 166 800 258 q 606 29 694 74 q 412 -16 518 -16 q 213 32 296 -16 q 86 170 130 80 q 43 383 43 260 q 96 607 43 515 q 238 746 149 699 q 431 792 326 792 m 561 376 q 528 615 561 536 q 420 695 495 695 q 315 623 350 695 q 281 400 281 551 q 315 162 281 242 q 424 81 349 81 q 527 153 494 81 q 561 376 561 224 z "},"p":{"ha":888,"x_min":39,"x_max":842,"o":"m 431 -16 q 382 -12 408 -16 q 339 -3 356 -7 l 343 -115 l 343 -232 l 464 -250 l 464 -336 l 39 -336 l 39 -250 l 126 -233 l 126 625 l 43 652 l 43 760 l 284 791 l 288 791 l 324 761 l 324 688 q 415 762 358 731 q 541 792 471 792 q 694 752 626 792 q 802 627 762 712 q 842 411 842 542 q 793 198 842 295 q 652 42 745 100 q 431 -16 559 -16 m 343 108 q 378 85 352 95 q 435 76 404 76 q 561 152 513 76 q 608 395 608 228 q 567 598 608 532 q 457 665 526 665 q 392 650 422 665 q 343 616 361 635 l 343 108 z "},"q":{"ha":857,"x_min":47,"x_max":858,"o":"m 47 370 q 95 582 47 486 q 237 735 143 678 q 461 792 330 792 q 545 784 500 792 q 625 766 590 776 l 731 786 l 734 786 l 766 761 l 766 -232 l 858 -250 l 858 -336 l 404 -336 l 404 -250 l 549 -232 l 549 -33 l 553 71 q 462 8 516 32 q 348 -16 408 -16 q 195 25 262 -16 q 87 153 127 66 q 47 370 47 239 m 549 666 q 513 688 541 679 q 453 698 486 698 q 328 625 376 698 q 281 388 281 552 q 322 179 281 248 q 433 109 363 109 q 499 125 469 109 q 549 161 530 140 l 549 666 z "},"r":{"ha":663,"x_min":59,"x_max":633,"o":"m 149 104 l 149 625 l 66 652 l 66 760 l 294 791 l 297 791 l 337 761 l 337 722 l 334 614 l 337 614 q 380 687 347 645 q 466 761 414 729 q 580 792 518 792 q 611 789 597 792 q 633 781 625 786 l 633 550 q 584 574 609 566 q 524 581 559 581 q 432 570 474 581 q 368 543 390 559 l 368 104 l 528 90 l 528 0 l 59 0 l 59 91 l 149 104 z "},"s":{"ha":732,"x_min":71,"x_max":686,"o":"m 202 225 l 237 119 q 283 89 247 102 q 358 75 319 75 q 445 99 417 75 q 473 163 473 124 q 451 216 473 193 q 395 257 430 239 q 293 307 360 276 l 258 323 q 117 422 163 365 q 71 568 71 479 q 109 682 71 631 q 215 761 146 732 q 379 789 285 789 q 490 781 444 789 q 591 759 536 773 q 639 747 621 750 l 639 562 l 517 562 l 481 662 q 448 688 474 677 q 386 700 422 700 q 302 677 332 700 q 273 616 273 654 q 292 563 273 585 q 339 526 311 541 q 418 488 367 511 l 450 475 q 573 411 524 442 q 654 333 622 380 q 686 218 686 286 q 652 99 686 152 q 546 15 617 46 q 369 -16 474 -16 q 236 -3 296 -16 q 109 30 176 9 q 72 41 96 35 l 72 225 l 202 225 z "},"t":{"ha":567,"x_min":34,"x_max":563,"o":"m 34 657 l 34 736 q 80 755 50 743 q 113 771 110 768 q 157 837 139 796 q 183 903 169 863 q 207 976 197 943 l 332 976 l 338 772 l 542 772 l 542 657 l 340 657 l 340 290 q 343 179 340 210 q 360 139 347 149 q 406 130 373 130 l 406 130 q 533 151 464 130 l 534 151 l 563 66 q 496 28 538 46 q 402 -1 454 10 q 301 -13 350 -13 l 300 -13 q 162 29 208 -13 q 117 158 117 71 l 117 657 l 34 657 z "},"u":{"ha":898,"x_min":45,"x_max":863,"o":"m 594 95 q 535 42 572 67 q 453 0 498 16 q 363 -16 408 -16 q 219 14 273 -16 q 138 107 164 43 q 112 279 112 172 l 112 662 l 45 684 l 45 769 l 299 789 l 300 789 l 332 770 l 332 274 q 341 176 332 212 q 374 125 351 140 q 437 110 397 110 q 569 159 509 110 l 569 662 l 483 685 l 483 770 l 749 789 l 752 789 l 789 770 l 789 96 l 863 96 l 863 8 q 780 -9 819 -2 q 691 -16 740 -16 q 617 6 641 -16 q 594 70 594 27 l 594 95 z "},"v":{"ha":798,"x_min":-11,"x_max":824,"o":"m -11 683 l -11 772 l 383 772 l 383 683 l 292 665 l 408 304 l 448 164 l 480 302 l 592 666 l 505 683 l 505 772 l 824 772 l 824 683 l 753 666 l 501 -11 l 321 -11 l 46 665 l -11 683 z "},"w":{"ha":1190,"x_min":-15,"x_max":1216,"o":"m -15 683 l -15 771 l 361 771 l 361 683 l 267 666 l 360 315 l 389 174 l 414 315 l 540 771 l 724 771 l 864 315 l 892 175 l 921 314 l 1009 665 l 909 683 l 909 771 l 1216 771 l 1216 683 l 1148 667 l 940 -11 l 762 -11 l 623 431 l 596 589 l 576 431 l 445 -11 l 267 -11 l 49 667 l -15 683 z "},"x":{"ha":843,"x_min":3,"x_max":856,"o":"m 90 104 l 307 378 l 83 666 l 12 683 l 12 772 l 435 772 l 435 683 l 349 666 l 447 529 l 482 470 l 516 528 l 616 666 l 526 683 l 526 772 l 836 772 l 836 683 l 756 666 l 546 406 l 781 103 l 856 90 l 856 0 l 437 0 l 437 90 l 512 104 l 415 252 l 374 313 l 342 253 l 242 104 l 342 90 l 342 0 l 3 0 l 3 90 l 90 104 z "},"y":{"ha":800,"x_min":-18,"x_max":817,"o":"m 92 -169 q 133 -181 102 -176 q 190 -187 164 -187 q 301 -144 256 -187 q 384 0 346 -100 l 298 0 l 44 665 l -18 683 l -18 772 l 386 772 l 386 683 l 290 665 l 406 288 l 448 144 l 482 288 l 590 667 l 506 683 l 506 772 l 817 772 l 817 683 l 752 667 q 610 245 692 481 q 515 -19 528 9 q 431 -200 475 -130 q 329 -309 387 -271 q 193 -346 271 -346 q 135 -342 165 -346 q 92 -332 105 -338 l 92 -169 z "},"z":{"ha":781,"x_min":31,"x_max":738,"o":"m 487 677 l 232 665 l 197 531 l 85 531 l 85 772 l 700 772 l 734 697 l 388 197 l 294 95 l 570 111 l 632 264 l 738 254 l 719 0 l 68 0 l 31 77 l 387 568 l 487 677 z "}}}
